# xmcd
#
# Track frame offsets: 
#        150
#        15332
#        33050
#        48702
#        65047
#        90242
#        108397
#        131145
#        147137
#        168840
#        184520
#        208232
#        236992
#        253392
#        266965
#        279717
#        294635
#        307187
#        319677
#        339662
#
# Disc length: 4762 seconds
#
# Revision: 3
# Processed by: cddbd v1.5.2PL0 Copyright (c) Steve Scherf et al.
# Submitted via: ExactAudioCopy v1.0b3
#
DISCID=39129814
DTITLE=Various Artist - 松本零士の世界 Disc 1 COCX-32297-8
DYEAR=2003
DGENRE=Music
TTITLE0=ささきいさお、杉並児童合唱団 - 銀河鉄道９９９
TTITLE1=ささきいさお、杉並児童合唱団 - 青い地球
TTITLE2=ゴダイゴ - 銀河鉄道９９９(The Galaxy Express 999)
TTITLE3=ゴダイゴ - テイキング・オフ(Taking Off)
TTITLE4=Mary MacGregor - Sayonara
TTITLE5=Mary MacGregor - Love Light
TTITLE6=堀江美都子 - Colors Of Dream〜虹の道標
TTITLE7=ささきいさお - 枯木霊歌
TTITLE8=町田義人 - 美しい女…エメラルダス
TTITLE9=町田義人 - 男たちのバラード
TTITLE10=松本圭未 - クイーンエメラルダス
TTITLE11=松本圭未 - Silent Song
TTITLE12=成田　賢 - コスモス・ドリームー宇宙をかける夢ー（カバァーVer.）
TTITLE13=かおりくみこ - まほろば伝説（カバァーVer.）
TTITLE14=ささきいさお、ヤング・フレッシュ - すきだッ ダンガードA
TTITLE15=ささきいさお - その名もタクマ 宇宙パイロット
TTITLE16=ささきいさお、こおろぎ’７３ - スタージンガーの歌
TTITLE17=ささきいさお、神代ユースコーラス - 宇宙の戦士スタージンガー
TTITLE18=作曲・東海林修 - ザ・コクピットのテーマ
TTITLE19=神谷　明 - 天駆ける夢
EXTD=
EXTT0=
EXTT1=
EXTT2=
EXTT3=
EXTT4=
EXTT5=
EXTT6=
EXTT7=
EXTT8=
EXTT9=
EXTT10=
EXTT11=
EXTT12=
EXTT13=
EXTT14=
EXTT15=
EXTT16=
EXTT17=
EXTT18=
EXTT19=
PLAYORDER=
